<svg width="72" height="71" viewBox="0 0 72 71" fill="none" xmlns="http://www.w3.org/2000/svg">
<path d="M70.23 43.611L65.526 36.564L58.026 41.559L62.739 48.6C62.8981 48.8189 62.991 49.0787 63.007 49.3488C63.0229 49.6189 62.9612 49.8879 62.829 50.124C62.6806 50.3976 62.4587 50.6242 62.1884 50.7785C61.9181 50.9327 61.61 51.0084 61.299 50.997H43.524V40.5L29.505 53.286C29.1966 53.5671 28.9503 53.9095 28.7817 54.2913C28.6132 54.673 28.5261 55.0857 28.5261 55.503C28.5261 55.9203 28.6132 56.333 28.7817 56.7147C28.9503 57.0965 29.1966 57.4389 29.505 57.72L43.524 70.5V60H61.299C63.2379 60.0082 65.1426 59.4891 66.8093 58.4983C68.4759 57.5075 69.8419 56.0822 70.761 54.375C71.6566 52.7012 72.0804 50.8155 71.9868 48.9194C71.8933 47.0234 71.286 45.1885 70.23 43.611Z" fill="#87C89C"/>
<path d="M33.9 9.795C34.0508 9.55063 34.2619 9.34914 34.513 9.20992C34.7642 9.07069 35.0469 8.9984 35.334 9C35.6239 8.98086 35.9136 9.04045 36.1723 9.17248C36.4311 9.30451 36.6494 9.50406 36.804 9.75L46.2 23.838L37.5 29.292L55.776 34.392C56.178 34.5038 56.5988 34.5306 57.0117 34.4706C57.4245 34.4106 57.8203 34.2651 58.1738 34.0435C58.5273 33.8219 58.8306 33.529 59.0645 33.1835C59.2984 32.838 59.4576 32.4475 59.532 32.037L62.91 13.356L53.826 19.056L44.292 4.764C43.3155 3.25569 41.9663 2.02478 40.375 1.19024C38.7837 0.355697 37.0041 -0.0542541 35.208 3.49153e-06C33.4213 0.0178218 31.6676 0.484277 30.1082 1.35653C28.5487 2.22878 27.2334 3.47888 26.283 4.992L22.746 10.566L30.345 15.39L33.9 9.795Z" fill="#87C89C"/>
<path d="M18.789 33.63L27 39.468L24.708 20.637C24.6574 20.2227 24.521 19.8236 24.3074 19.4651C24.0938 19.1066 23.8077 18.7965 23.4675 18.5549C23.1273 18.3132 22.7404 18.1451 22.3315 18.0615C21.9226 17.9778 21.5008 17.9804 21.093 18.069L2.55602 22.098L11.442 28.398L1.62902 43.878C0.619314 45.4585 0.0580482 47.2837 0.00520812 49.1585C-0.047632 51.0332 0.40994 52.8871 1.32902 54.522C2.262 56.1941 3.62584 57.5857 5.27874 58.5522C6.93165 59.5188 8.81328 60.0249 10.728 60.018L21.018 60L21 51L10.719 51.018C10.415 51.0269 10.1143 50.9521 9.84982 50.8019C9.58533 50.6516 9.36714 50.4317 9.21902 50.166C9.08184 49.9384 9.01236 49.6764 9.01874 49.4108C9.02511 49.1451 9.10708 48.8868 9.25502 48.666L18.789 33.63Z" fill="#87C89C"/>
</svg>
