<svg width="60" height="72" viewBox="0 0 60 72" fill="none" xmlns="http://www.w3.org/2000/svg">
<path d="M57.7652 18.81C56.8149 17.6183 55.6077 16.6567 54.2337 15.997C52.8597 15.3373 51.3544 14.9965 49.8302 15H39.1922L39.9602 9H54.0002V0H32.0402L30.1172 15H10.1702C8.6665 15 7.1815 15.3334 5.82215 15.9762C4.46279 16.6191 3.2629 17.5554 2.30889 18.7177C1.35488 19.88 0.670487 21.2394 0.304993 22.6981C-0.0605008 24.1567 -0.0979981 25.6782 0.195201 27.153L6.2312 72H53.7692L59.8022 27.168C60.098 25.7108 60.0688 24.2063 59.7167 22.7616C59.3646 21.317 58.6983 19.9677 57.7652 18.81ZM49.8302 24C50.0073 23.9932 50.1835 24.028 50.3447 24.1016C50.5058 24.1752 50.6475 24.2856 50.7584 24.4239C50.8692 24.5621 50.9461 24.7244 50.9829 24.8978C51.0197 25.0711 51.0153 25.2506 50.9702 25.422L50.3522 30H37.2692L38.0372 24H49.8302ZM9.2582 24.438C9.36578 24.2992 9.5042 24.1874 9.66249 24.1113C9.82079 24.0353 9.99462 23.9972 10.1702 24H28.9622L28.2002 30H9.6602L9.0302 25.422C8.98982 25.2515 8.98938 25.074 9.02893 24.9033C9.06848 24.7326 9.14695 24.5734 9.2582 24.438ZM14.1002 63L10.8722 39H49.1372L45.9002 63H14.1002ZM26.2712 45H35.3462L33.8072 57H24.7322L26.2712 45Z" fill="#87C89C"/>
</svg>
