<svg width="72" height="72" viewBox="0 0 72 72" fill="none" xmlns="http://www.w3.org/2000/svg">
<path d="M68.199 27.042C65.901 24.948 62.943 23.877 59.814 24.012C56.703 24.159 53.835 25.506 51.738 27.81L44.424 35.85C42.483 34.08 39.903 33.003 37.077 33.003H10.5C4.71 33.003 0 37.713 0 43.503V61.503C0 67.293 4.71 72.003 10.5 72.003H44.043L69.042 43.41C73.275 38.667 72.894 31.326 68.199 27.045V27.042ZM62.298 37.449L39.957 63.003H10.5C9.672 63.003 9 62.328 9 61.503V43.503C9 42.678 9.672 42.003 10.5 42.003H37.074C38.136 42.003 39 42.867 39 43.932C39 44.883 38.289 45.705 37.347 45.837L21.864 48.048L23.136 56.961L38.616 54.75C43.473 54.057 47.244 50.16 47.898 45.405L58.392 33.873C58.869 33.348 59.52 33.042 60.228 33.009C60.927 32.958 61.608 33.219 62.133 33.696C63.201 34.671 63.288 36.339 62.295 37.452L62.298 37.449ZM14.937 16.875C14.937 10.125 25.467 0 25.467 0C25.467 0 35.997 10.125 35.997 16.875C35.997 22.467 31.281 27 25.467 27C19.653 27 14.937 22.467 14.937 16.875Z" fill="#87C89C"/>
</svg>
