<svg width="20" height="20" viewBox="0 0 20 20" fill="none" xmlns="http://www.w3.org/2000/svg">
<path d="M19.9252 7.21093C19.8379 6.9381 19.6754 6.69541 19.4565 6.51075C19.2375 6.32608 18.9708 6.20691 18.6872 6.16693L13.6362 5.43293L11.3772 0.855929C11.2506 0.599036 11.0546 0.382711 10.8114 0.231441C10.5683 0.0801722 10.2876 0 10.0012 0C9.7148 0 9.43413 0.0801722 9.19095 0.231441C8.94777 0.382711 8.75179 0.599036 8.62519 0.855929L6.36619 5.43293L1.3152 6.16693C1.03157 6.20797 0.765099 6.32758 0.545942 6.51223C0.326784 6.69689 0.163695 6.9392 0.075134 7.21175C-0.0134265 7.4843 -0.023921 7.7762 0.0448382 8.05441C0.113597 8.33261 0.258864 8.58601 0.464195 8.78593L4.12019 12.3489L3.2572 17.3799C3.20822 17.6622 3.23937 17.9525 3.34709 18.2179C3.45482 18.4834 3.6348 18.7133 3.86662 18.8816C4.09844 19.0499 4.3728 19.1498 4.65855 19.17C4.9443 19.1902 5.23 19.1299 5.48319 18.9959L10.0012 16.6189L14.5192 18.9939C14.7725 19.1272 15.0581 19.1869 15.3437 19.1663C15.6292 19.1457 15.9032 19.0456 16.1348 18.8774C16.3664 18.7091 16.5463 18.4794 16.6542 18.2143C16.7621 17.9491 16.7936 17.6591 16.7452 17.3769L15.8822 12.3469L19.5382 8.78593C19.7445 8.58652 19.8903 8.33288 19.9588 8.05423C20.0273 7.77558 20.0156 7.48325 19.9252 7.21093Z" fill="#480917"/>
</svg>
