<svg width="107" height="102" viewBox="0 0 107 102" fill="none" xmlns="http://www.w3.org/2000/svg">
<path d="M77.3333 7.41856e-07C73.5014 0.0117154 69.7439 1.05867 66.4581 3.03017C63.1723 5.00167 60.4802 7.82444 58.6667 11.2C65.5674 12.5858 71.6353 16.6556 75.5359 22.5144C79.4364 28.3733 80.8503 35.5415 79.4667 42.4427C84.8978 41.8968 89.9113 39.2842 93.4701 35.1454C97.0289 31.0066 98.8608 25.6583 98.5868 20.2067C98.3128 14.7551 95.9538 9.61737 91.9979 5.8563C88.042 2.09523 82.7918 -0.00143984 77.3333 7.41856e-07Z" fill="#EB5564"/>
<path d="M48 69.3333H58.6667C64.3246 69.3333 69.7508 71.5809 73.7516 75.5817C77.7524 79.5825 80 85.0087 80 90.6667V101.333H26.6667V90.6667C26.6667 85.0087 28.9143 79.5825 32.9151 75.5817C36.9158 71.5809 42.342 69.3333 48 69.3333Z" fill="#EB5564"/>
<path d="M26.6667 101.333H80V90.6667C80 85.0087 77.7524 79.5825 73.7516 75.5817C69.7508 71.5809 64.3246 69.3333 58.6667 69.3333H48C42.342 69.3333 36.9158 71.5809 32.9151 75.5817C28.9143 79.5825 26.6667 85.0087 26.6667 90.6667V101.333Z" fill="#EB5564"/>
<path d="M26.6667 37.3333C26.6734 31.188 28.7991 25.2329 32.6853 20.4724C36.5715 15.7118 41.9804 12.4369 48 11.2C46.2595 7.96602 43.7113 5.23781 40.6035 3.28099C37.4956 1.32416 33.934 0.20541 30.2655 0.0336519C26.5969 -0.138106 22.9464 0.642982 19.6693 2.30087C16.3922 3.95876 13.6003 6.43695 11.5653 9.49417C9.53024 12.5514 8.32152 16.0834 8.05677 19.7465C7.79203 23.4095 8.48028 27.0787 10.0545 30.3967C11.6288 33.7148 14.0353 36.5687 17.04 38.6806C20.0446 40.7925 23.5449 42.0904 27.2 42.448C26.857 40.7644 26.6784 39.0515 26.6667 37.3333Z" fill="#EB5564"/>
<path d="M53.3333 53.3333C62.1699 53.3333 69.3333 46.1699 69.3333 37.3333C69.3333 28.4968 62.1699 21.3333 53.3333 21.3333C44.4968 21.3333 37.3333 28.4968 37.3333 37.3333C37.3333 46.1699 44.4968 53.3333 53.3333 53.3333Z" fill="#EB5564"/>
<path d="M80 48H77.7387C75.5616 52.9191 71.9521 57.0676 67.3813 59.904C74.0778 61.8057 79.9726 65.8367 84.174 71.3871C88.3753 76.9376 90.6545 83.7054 90.6667 90.6667H101.333C102.748 90.6667 104.104 90.1048 105.105 89.1046C106.105 88.1044 106.667 86.7478 106.667 85.3333V74.6667C106.658 67.5968 103.846 60.819 98.8468 55.8198C93.8477 50.8207 87.0698 48.0085 80 48Z" fill="#EB5564"/>
<path d="M28.928 48H26.6667C19.5968 48.0085 12.819 50.8207 7.81984 55.8198C2.8207 60.819 0.00846857 67.5968 0 74.6667V85.3333C0 86.7478 0.561903 88.1044 1.5621 89.1046C2.56229 90.1048 3.91885 90.6667 5.33333 90.6667H16C16.0122 83.7054 18.2914 76.9376 22.4927 71.3871C26.694 65.8367 32.5889 61.8057 39.2853 59.904C34.7146 57.0676 31.1051 52.9191 28.928 48Z" fill="#EB5564"/>
</svg>
