<svg width="30" height="23" viewBox="0 0 30 23" fill="none" xmlns="http://www.w3.org/2000/svg">
<path d="M25.389 1.9309C23.415 1.01785 21.3265 0.368496 19.1787 0C18.8854 0.530982 18.6197 1.0763 18.3824 1.63384C16.1012 1.29074 13.7805 1.29074 11.4992 1.63384C11.2602 1.07561 10.9914 0.530237 10.694 0C8.54445 0.367664 6.45434 1.01704 4.47909 1.9309C1.00155 7.01583 -0.528692 13.156 0.16224 19.2526C2.40784 20.9276 4.93723 22.1954 7.63244 22.997C8.25062 22.1599 8.79641 21.2731 9.26405 20.3458C8.37259 20.0111 7.51322 19.5986 6.69622 19.113C6.91146 18.9555 7.12218 18.7906 7.32538 18.6213C9.70096 19.7497 12.3036 20.3357 14.9401 20.3357C17.5766 20.3357 20.1792 19.7497 22.5548 18.6213C22.761 18.7906 22.9717 18.9555 23.1839 19.113C22.3651 19.5999 21.5037 20.0134 20.6101 20.3487C21.0782 21.2758 21.6239 22.1626 22.2417 23C24.9899 22.1616 27.5692 20.8573 29.8639 19.1456C30.4966 13.0647 28.9098 6.9605 25.389 1.9309ZM9.93987 15.6804C9.17455 15.6266 8.4614 15.2779 7.95447 14.7095C7.44753 14.1412 7.1875 13.3989 7.23055 12.6429C7.18269 11.8856 7.44094 11.1403 7.94875 10.5705C8.45656 10.0006 9.17254 9.65253 9.93987 9.60252C10.3207 9.62498 10.6932 9.72165 11.0359 9.88694C11.3786 10.0522 11.6847 10.2829 11.9366 10.5656C12.1885 10.8482 12.3812 11.1774 12.5035 11.5339C12.6258 11.8905 12.6753 12.2674 12.6492 12.6429C12.697 13.4 12.4387 14.1449 11.9308 14.7143C11.4229 15.2837 10.7069 15.6311 9.93987 15.6804ZM19.9403 15.6804C19.175 15.6266 18.4618 15.2779 17.9549 14.7095C17.4479 14.1412 17.1879 13.3989 17.231 12.6429C17.1831 11.8856 17.4413 11.1403 17.9491 10.5705C18.457 10.0006 19.1729 9.65253 19.9403 9.60252C20.3211 9.62478 20.6937 9.72132 21.0365 9.88655C21.3794 10.0518 21.6856 10.2824 21.9375 10.5651C22.1895 10.8479 22.3821 11.1771 22.5043 11.5337C22.6265 11.8903 22.6759 12.2674 22.6496 12.6429C22.697 13.3999 22.4386 14.1446 21.9307 14.7139C21.4229 15.2832 20.7072 15.6308 19.9403 15.6804Z" fill="#2F2F38"/>
</svg>
