<svg width="24" height="24" viewBox="0 0 24 24" fill="none" xmlns="http://www.w3.org/2000/svg">
<path fill-rule="evenodd" clip-rule="evenodd" d="M12.0073 7.00216e-06C9.15693 -0.00307149 6.39864 1.00903 4.22674 2.85494C2.05485 4.70085 0.611308 7.25989 0.154834 10.0735C-0.30164 12.887 0.258788 15.7712 1.73568 18.2091C3.21258 20.647 5.50939 22.4792 8.21451 23.3775C8.81961 23.4888 9.03503 23.1173 9.03503 22.8002C9.03503 22.5134 9.02293 21.5694 9.01809 20.5674C5.68156 21.2935 4.97844 19.1526 4.97844 19.1526C4.75822 18.4273 4.2861 17.8046 3.64721 17.3966C2.55803 16.6524 3.73072 16.6705 3.73072 16.6705C4.11098 16.7229 4.47426 16.8615 4.79284 17.0756C5.11143 17.2897 5.3769 17.5738 5.56901 17.9061C5.73152 18.202 5.95106 18.4626 6.21494 18.6731C6.47882 18.8835 6.7818 19.0396 7.10636 19.1322C7.43092 19.2248 7.77063 19.2522 8.10583 19.2127C8.44103 19.1732 8.76508 19.0676 9.05923 18.9021C9.11274 18.2937 9.38286 17.7247 9.82045 17.2986C7.15801 16.9961 4.35639 15.9674 4.35639 11.3686C4.33985 10.1769 4.78276 9.02457 5.59322 8.15071C5.22584 7.11657 5.26696 5.98121 5.70819 4.97635C5.70819 4.97635 6.71507 4.65444 9.00719 6.20592C10.9728 5.6686 13.0466 5.6686 15.0122 6.20592C17.2995 4.65444 18.3003 4.97635 18.3003 4.97635C18.7434 5.98046 18.7867 7.11578 18.4213 8.15071C19.2315 9.02461 19.6736 10.1771 19.6558 11.3686C19.6558 15.9759 16.8493 16.9888 14.1796 17.2853C14.4654 17.576 14.6859 17.9244 14.8264 18.3072C14.9668 18.6899 15.024 19.0982 14.9941 19.5048C14.9941 21.1095 14.9795 22.402 14.9795 22.7966C14.9795 23.1148 15.1962 23.4888 15.8037 23.3714C18.5046 22.4698 20.7967 20.6366 22.2699 18.1999C23.7431 15.7632 24.3013 12.8818 23.8448 10.0712C23.3882 7.26057 21.9467 4.70405 19.7779 2.85892C17.6092 1.01378 14.8547 0.000389258 12.0073 7.00216e-06Z" fill="#2F2F38"/>
</svg>
