<svg width="24" height="23" viewBox="0 0 24 23" fill="none" xmlns="http://www.w3.org/2000/svg">
<path fill-rule="evenodd" clip-rule="evenodd" d="M12.7664 6.58667V9.18982C13.2996 8.35771 14.0345 7.68205 14.899 7.22914C15.7635 6.77623 16.7279 6.56162 17.6976 6.60637C22.88 6.60637 24 9.91857 24 14.2271V23H19.2V15.2234C19.2 13.3687 18.8336 10.9822 16.008 10.9822C13.2672 10.9822 12.8 13.001 12.8 15.0855V23H8.0144V6.58667H12.7664Z" fill="#2F2F38"/>
<path fill-rule="evenodd" clip-rule="evenodd" d="M4.8 2.462C4.8 2.94894 4.65924 3.42494 4.39553 3.82981C4.13181 4.23469 3.75698 4.55025 3.31844 4.73659C2.8799 4.92293 2.39734 4.97169 1.93178 4.87669C1.46623 4.7817 1.03859 4.54721 0.702945 4.2029C0.367299 3.85858 0.138721 3.41989 0.0461164 2.94231C-0.0464881 2.46473 0.00103989 1.9697 0.18269 1.51983C0.36434 1.06996 0.671955 0.68545 1.06663 0.414922C1.46131 0.144394 1.92533 0 2.4 0C3.03652 0 3.64697 0.259388 4.09706 0.721103C4.54714 1.18282 4.8 1.80904 4.8 2.462Z" fill="#2F2F38"/>
<path d="M4.8 6.60637H1.5253e-06V23H4.8V6.60637Z" fill="#2F2F38"/>
</svg>
