<svg width="32" height="23" viewBox="0 0 32 23" fill="none" xmlns="http://www.w3.org/2000/svg">
<path fill-rule="evenodd" clip-rule="evenodd" d="M31.6736 4.95616C31.5223 3.78335 31.0838 2.66848 30.3985 1.71477C29.5493 0.841121 28.3977 0.343741 27.1924 0.330081C22.7209 4.67265e-07 16 0 16 0C16 0 9.28229 4.67265e-07 4.80436 0.330081C3.59949 0.343464 2.44824 0.84092 1.59984 1.71477C0.9116 2.66756 0.472251 3.78363 0.3232 4.95781C0.123475 6.71442 0.0155884 8.48065 0 10.249V12.7246C0.0154903 14.4929 0.123377 16.2592 0.3232 18.0158C0.475104 19.1911 0.910451 20.3094 1.59014 21.2704C2.56571 22.1547 3.82004 22.6514 5.12433 22.6699C7.68246 22.9191 16.0016 23 16.0016 23C16.0016 23 22.7258 23 27.1973 22.6699C28.4032 22.6555 29.5553 22.1576 30.405 21.2836C31.0887 20.3287 31.526 19.2134 31.6768 18.0405C31.8765 16.2839 31.9844 14.5177 32 12.7494V10.2473C31.9818 8.479 31.8729 6.71285 31.6736 4.95616ZM12.7793 15.7729V6.49763L21.5057 11.1501L12.7793 15.7729Z" fill="#2F2F38"/>
</svg>
